<mxfile host="app.diagrams.net" agent="Mozilla/5.0 (Windows NT 10.0; Win64; x64) AppleWebKit/537.36 (KHTML, like Gecko) Chrome/140.0.0.0 Safari/537.36" version="28.2.3">
  <diagram name="Page-1" id="3SMIqaJfR-r3kDvsEElD">
    <mxGraphModel grid="1" page="1" gridSize="10" guides="1" tooltips="1" connect="1" arrows="1" fold="1" pageScale="1" pageWidth="827" pageHeight="1169" math="0" shadow="0">
      <root>
        <mxCell id="0" />
        <mxCell id="1" parent="0" />
        <mxCell id="WY8Vy3_aa-vUZHjxCSXM-2" value="branch" style="whiteSpace=wrap;html=1;align=center;" vertex="1" parent="1">
          <mxGeometry x="-60" y="50" width="100" height="40" as="geometry" />
        </mxCell>
        <mxCell id="WY8Vy3_aa-vUZHjxCSXM-3" value="Account" style="whiteSpace=wrap;html=1;align=center;" vertex="1" parent="1">
          <mxGeometry x="-90" y="540" width="100" height="40" as="geometry" />
        </mxCell>
        <mxCell id="WY8Vy3_aa-vUZHjxCSXM-4" value="customer" style="whiteSpace=wrap;html=1;align=center;" vertex="1" parent="1">
          <mxGeometry x="500" y="520" width="100" height="40" as="geometry" />
        </mxCell>
        <mxCell id="WY8Vy3_aa-vUZHjxCSXM-5" value="Employee" style="whiteSpace=wrap;html=1;align=center;" vertex="1" parent="1">
          <mxGeometry x="420" y="80" width="100" height="40" as="geometry" />
        </mxCell>
        <mxCell id="WY8Vy3_aa-vUZHjxCSXM-6" value="work for" style="shape=rhombus;perimeter=rhombusPerimeter;whiteSpace=wrap;html=1;align=center;" vertex="1" parent="1">
          <mxGeometry x="180" y="140" width="120" height="60" as="geometry" />
        </mxCell>
        <mxCell id="WY8Vy3_aa-vUZHjxCSXM-7" value="Manager" style="shape=rhombus;perimeter=rhombusPerimeter;whiteSpace=wrap;html=1;align=center;" vertex="1" parent="1">
          <mxGeometry x="180" y="220" width="120" height="60" as="geometry" />
        </mxCell>
        <mxCell id="WY8Vy3_aa-vUZHjxCSXM-10" value="" style="endArrow=none;html=1;rounded=0;exitX=1;exitY=0.5;exitDx=0;exitDy=0;entryX=0;entryY=0.5;entryDx=0;entryDy=0;" edge="1" parent="1" source="WY8Vy3_aa-vUZHjxCSXM-2" target="WY8Vy3_aa-vUZHjxCSXM-6">
          <mxGeometry relative="1" as="geometry">
            <mxPoint y="200" as="sourcePoint" />
            <mxPoint x="160" y="200" as="targetPoint" />
          </mxGeometry>
        </mxCell>
        <mxCell id="WY8Vy3_aa-vUZHjxCSXM-13" value="" style="endArrow=none;html=1;rounded=0;exitX=1;exitY=0.5;exitDx=0;exitDy=0;entryX=0;entryY=0.5;entryDx=0;entryDy=0;" edge="1" parent="1" source="WY8Vy3_aa-vUZHjxCSXM-7" target="WY8Vy3_aa-vUZHjxCSXM-5">
          <mxGeometry relative="1" as="geometry">
            <mxPoint x="330" y="290" as="sourcePoint" />
            <mxPoint x="490" y="290" as="targetPoint" />
          </mxGeometry>
        </mxCell>
        <mxCell id="WY8Vy3_aa-vUZHjxCSXM-14" value="" style="shape=link;html=1;rounded=0;exitX=1;exitY=0.5;exitDx=0;exitDy=0;entryX=0;entryY=0.5;entryDx=0;entryDy=0;" edge="1" parent="1" source="WY8Vy3_aa-vUZHjxCSXM-2" target="WY8Vy3_aa-vUZHjxCSXM-7">
          <mxGeometry relative="1" as="geometry">
            <mxPoint x="330" y="290" as="sourcePoint" />
            <mxPoint x="490" y="290" as="targetPoint" />
          </mxGeometry>
        </mxCell>
        <mxCell id="WY8Vy3_aa-vUZHjxCSXM-15" value="1" style="resizable=0;html=1;whiteSpace=wrap;align=right;verticalAlign=bottom;" connectable="0" vertex="1" parent="WY8Vy3_aa-vUZHjxCSXM-14">
          <mxGeometry x="1" relative="1" as="geometry" />
        </mxCell>
        <mxCell id="WY8Vy3_aa-vUZHjxCSXM-16" value="" style="shape=link;html=1;rounded=0;entryX=1;entryY=0.5;entryDx=0;entryDy=0;" edge="1" parent="1" target="WY8Vy3_aa-vUZHjxCSXM-6">
          <mxGeometry relative="1" as="geometry">
            <mxPoint x="420" y="100" as="sourcePoint" />
            <mxPoint x="440" y="330" as="targetPoint" />
          </mxGeometry>
        </mxCell>
        <mxCell id="WY8Vy3_aa-vUZHjxCSXM-17" value="n" style="resizable=0;html=1;whiteSpace=wrap;align=right;verticalAlign=bottom;" connectable="0" vertex="1" parent="WY8Vy3_aa-vUZHjxCSXM-16">
          <mxGeometry x="1" relative="1" as="geometry">
            <mxPoint y="-10" as="offset" />
          </mxGeometry>
        </mxCell>
        <mxCell id="WY8Vy3_aa-vUZHjxCSXM-18" value="1" style="resizable=0;html=1;whiteSpace=wrap;align=right;verticalAlign=bottom;" connectable="0" vertex="1" parent="1">
          <mxGeometry x="180" y="160" as="geometry" />
        </mxCell>
        <mxCell id="WY8Vy3_aa-vUZHjxCSXM-19" value="1" style="resizable=0;html=1;whiteSpace=wrap;align=right;verticalAlign=bottom;" connectable="0" vertex="1" parent="1">
          <mxGeometry x="310" y="230" as="geometry">
            <mxPoint x="5" y="6" as="offset" />
          </mxGeometry>
        </mxCell>
        <mxCell id="WY8Vy3_aa-vUZHjxCSXM-21" value="email" style="ellipse;whiteSpace=wrap;html=1;align=center;" vertex="1" parent="1">
          <mxGeometry x="20" y="-40" width="100" height="40" as="geometry" />
        </mxCell>
        <mxCell id="WY8Vy3_aa-vUZHjxCSXM-22" value="address" style="ellipse;whiteSpace=wrap;html=1;align=center;" vertex="1" parent="1">
          <mxGeometry x="-80" y="-90" width="100" height="40" as="geometry" />
        </mxCell>
        <mxCell id="WY8Vy3_aa-vUZHjxCSXM-23" value="name" style="ellipse;whiteSpace=wrap;html=1;align=center;" vertex="1" parent="1">
          <mxGeometry x="-200" y="-50" width="100" height="40" as="geometry" />
        </mxCell>
        <mxCell id="WY8Vy3_aa-vUZHjxCSXM-24" value="FAX" style="ellipse;shape=doubleEllipse;margin=3;whiteSpace=wrap;html=1;align=center;" vertex="1" parent="1">
          <mxGeometry x="-240" y="20" width="100" height="40" as="geometry" />
        </mxCell>
        <mxCell id="WY8Vy3_aa-vUZHjxCSXM-25" value="Phone" style="ellipse;shape=doubleEllipse;margin=3;whiteSpace=wrap;html=1;align=center;" vertex="1" parent="1">
          <mxGeometry x="-250" y="100" width="100" height="40" as="geometry" />
        </mxCell>
        <mxCell id="WY8Vy3_aa-vUZHjxCSXM-26" value="Num.Of EMP" style="ellipse;whiteSpace=wrap;html=1;align=center;dashed=1;" vertex="1" parent="1">
          <mxGeometry x="-220" y="170" width="100" height="40" as="geometry" />
        </mxCell>
        <mxCell id="WY8Vy3_aa-vUZHjxCSXM-27" value="City" style="ellipse;whiteSpace=wrap;html=1;align=center;" vertex="1" parent="1">
          <mxGeometry x="30" y="-240" width="100" height="40" as="geometry" />
        </mxCell>
        <mxCell id="WY8Vy3_aa-vUZHjxCSXM-28" value="District" style="ellipse;whiteSpace=wrap;html=1;align=center;" vertex="1" parent="1">
          <mxGeometry x="-30" y="-310" width="100" height="40" as="geometry" />
        </mxCell>
        <mxCell id="WY8Vy3_aa-vUZHjxCSXM-29" value="Street" style="ellipse;whiteSpace=wrap;html=1;align=center;" vertex="1" parent="1">
          <mxGeometry x="-130" y="-250" width="100" height="40" as="geometry" />
        </mxCell>
        <mxCell id="WY8Vy3_aa-vUZHjxCSXM-30" value="" style="endArrow=none;html=1;rounded=0;exitX=1;exitY=1;exitDx=0;exitDy=0;entryX=0.5;entryY=0;entryDx=0;entryDy=0;" edge="1" parent="1" source="WY8Vy3_aa-vUZHjxCSXM-29" target="WY8Vy3_aa-vUZHjxCSXM-22">
          <mxGeometry relative="1" as="geometry">
            <mxPoint x="-40" y="-30" as="sourcePoint" />
            <mxPoint x="120" y="-30" as="targetPoint" />
          </mxGeometry>
        </mxCell>
        <mxCell id="WY8Vy3_aa-vUZHjxCSXM-31" value="" style="endArrow=none;html=1;rounded=0;exitX=0.678;exitY=0.03;exitDx=0;exitDy=0;entryX=0.5;entryY=1;entryDx=0;entryDy=0;exitPerimeter=0;" edge="1" parent="1" source="WY8Vy3_aa-vUZHjxCSXM-22" target="WY8Vy3_aa-vUZHjxCSXM-28">
          <mxGeometry relative="1" as="geometry">
            <mxPoint x="-40" y="-30" as="sourcePoint" />
            <mxPoint x="120" y="-30" as="targetPoint" />
          </mxGeometry>
        </mxCell>
        <mxCell id="WY8Vy3_aa-vUZHjxCSXM-32" value="" style="endArrow=none;html=1;rounded=0;exitX=0.742;exitY=0.17;exitDx=0;exitDy=0;entryX=0;entryY=0.5;entryDx=0;entryDy=0;exitPerimeter=0;" edge="1" parent="1" source="WY8Vy3_aa-vUZHjxCSXM-22" target="WY8Vy3_aa-vUZHjxCSXM-27">
          <mxGeometry relative="1" as="geometry">
            <mxPoint x="-40" y="-30" as="sourcePoint" />
            <mxPoint x="120" y="-30" as="targetPoint" />
          </mxGeometry>
        </mxCell>
        <mxCell id="WY8Vy3_aa-vUZHjxCSXM-33" value="" style="endArrow=none;html=1;rounded=0;exitX=1;exitY=1;exitDx=0;exitDy=0;entryX=0.25;entryY=0;entryDx=0;entryDy=0;" edge="1" parent="1" source="WY8Vy3_aa-vUZHjxCSXM-23" target="WY8Vy3_aa-vUZHjxCSXM-2">
          <mxGeometry relative="1" as="geometry">
            <mxPoint x="-140" y="20" as="sourcePoint" />
            <mxPoint x="20" y="20" as="targetPoint" />
          </mxGeometry>
        </mxCell>
        <mxCell id="WY8Vy3_aa-vUZHjxCSXM-34" value="Region" style="ellipse;whiteSpace=wrap;html=1;align=center;" vertex="1" parent="1">
          <mxGeometry x="70" y="-190" width="100" height="40" as="geometry" />
        </mxCell>
        <mxCell id="WY8Vy3_aa-vUZHjxCSXM-35" value="No." style="ellipse;whiteSpace=wrap;html=1;align=center;" vertex="1" parent="1">
          <mxGeometry x="-210" y="-180" width="100" height="40" as="geometry" />
        </mxCell>
        <mxCell id="WY8Vy3_aa-vUZHjxCSXM-36" value="" style="endArrow=none;html=1;rounded=0;exitX=1;exitY=0.5;exitDx=0;exitDy=0;entryX=0;entryY=0;entryDx=0;entryDy=0;" edge="1" parent="1" source="WY8Vy3_aa-vUZHjxCSXM-35" target="WY8Vy3_aa-vUZHjxCSXM-22">
          <mxGeometry relative="1" as="geometry">
            <mxPoint x="-50" y="-200" as="sourcePoint" />
            <mxPoint x="-35" y="-74" as="targetPoint" />
          </mxGeometry>
        </mxCell>
        <mxCell id="WY8Vy3_aa-vUZHjxCSXM-37" value="" style="endArrow=none;html=1;rounded=0;exitX=0;exitY=0.5;exitDx=0;exitDy=0;entryX=1;entryY=0;entryDx=0;entryDy=0;" edge="1" parent="1" source="WY8Vy3_aa-vUZHjxCSXM-34" target="WY8Vy3_aa-vUZHjxCSXM-22">
          <mxGeometry relative="1" as="geometry">
            <mxPoint x="60" y="-160" as="sourcePoint" />
            <mxPoint x="75" y="-34" as="targetPoint" />
          </mxGeometry>
        </mxCell>
        <mxCell id="WY8Vy3_aa-vUZHjxCSXM-38" value="" style="endArrow=none;html=1;rounded=0;exitX=0.5;exitY=1;exitDx=0;exitDy=0;entryX=0.5;entryY=0;entryDx=0;entryDy=0;" edge="1" parent="1" source="WY8Vy3_aa-vUZHjxCSXM-22" target="WY8Vy3_aa-vUZHjxCSXM-2">
          <mxGeometry relative="1" as="geometry">
            <mxPoint y="-10" as="sourcePoint" />
            <mxPoint x="105" y="56" as="targetPoint" />
          </mxGeometry>
        </mxCell>
        <mxCell id="WY8Vy3_aa-vUZHjxCSXM-39" value="" style="endArrow=none;html=1;rounded=0;exitX=0;exitY=1;exitDx=0;exitDy=0;entryX=0.75;entryY=0;entryDx=0;entryDy=0;" edge="1" parent="1" source="WY8Vy3_aa-vUZHjxCSXM-21" target="WY8Vy3_aa-vUZHjxCSXM-2">
          <mxGeometry relative="1" as="geometry">
            <mxPoint x="70" y="50" as="sourcePoint" />
            <mxPoint x="175" y="116" as="targetPoint" />
          </mxGeometry>
        </mxCell>
        <mxCell id="WY8Vy3_aa-vUZHjxCSXM-40" value="" style="endArrow=none;html=1;rounded=0;exitX=1;exitY=0.5;exitDx=0;exitDy=0;entryX=0;entryY=0.25;entryDx=0;entryDy=0;" edge="1" parent="1" source="WY8Vy3_aa-vUZHjxCSXM-24" target="WY8Vy3_aa-vUZHjxCSXM-2">
          <mxGeometry relative="1" as="geometry">
            <mxPoint x="90" y="-90" as="sourcePoint" />
            <mxPoint x="195" y="-24" as="targetPoint" />
          </mxGeometry>
        </mxCell>
        <mxCell id="WY8Vy3_aa-vUZHjxCSXM-41" value="" style="endArrow=none;html=1;rounded=0;exitX=1;exitY=0.5;exitDx=0;exitDy=0;entryX=0;entryY=0.5;entryDx=0;entryDy=0;" edge="1" parent="1" source="WY8Vy3_aa-vUZHjxCSXM-25" target="WY8Vy3_aa-vUZHjxCSXM-2">
          <mxGeometry relative="1" as="geometry">
            <mxPoint x="50" y="60" as="sourcePoint" />
            <mxPoint x="155" y="126" as="targetPoint" />
          </mxGeometry>
        </mxCell>
        <mxCell id="WY8Vy3_aa-vUZHjxCSXM-42" value="" style="endArrow=none;html=1;rounded=0;exitX=1;exitY=0.5;exitDx=0;exitDy=0;entryX=0.25;entryY=1;entryDx=0;entryDy=0;" edge="1" parent="1" source="WY8Vy3_aa-vUZHjxCSXM-26" target="WY8Vy3_aa-vUZHjxCSXM-2">
          <mxGeometry relative="1" as="geometry">
            <mxPoint y="90" as="sourcePoint" />
            <mxPoint x="105" y="156" as="targetPoint" />
          </mxGeometry>
        </mxCell>
        <mxCell id="WY8Vy3_aa-vUZHjxCSXM-44" value="DOB" style="ellipse;whiteSpace=wrap;html=1;align=center;" vertex="1" parent="1">
          <mxGeometry x="727" y="70" width="100" height="40" as="geometry" />
        </mxCell>
        <mxCell id="WY8Vy3_aa-vUZHjxCSXM-45" value="email" style="ellipse;whiteSpace=wrap;html=1;align=center;" vertex="1" parent="1">
          <mxGeometry x="640" y="-10" width="100" height="40" as="geometry" />
        </mxCell>
        <mxCell id="WY8Vy3_aa-vUZHjxCSXM-46" value="address" style="ellipse;whiteSpace=wrap;html=1;align=center;" vertex="1" parent="1">
          <mxGeometry x="560" y="-80" width="100" height="40" as="geometry" />
        </mxCell>
        <mxCell id="WY8Vy3_aa-vUZHjxCSXM-47" value="LName" style="ellipse;whiteSpace=wrap;html=1;align=center;" vertex="1" parent="1">
          <mxGeometry x="440" y="-120" width="100" height="40" as="geometry" />
        </mxCell>
        <mxCell id="WY8Vy3_aa-vUZHjxCSXM-48" value="FName" style="ellipse;whiteSpace=wrap;html=1;align=center;" vertex="1" parent="1">
          <mxGeometry x="340" y="-60" width="100" height="40" as="geometry" />
        </mxCell>
        <mxCell id="WY8Vy3_aa-vUZHjxCSXM-49" value="phones" style="ellipse;shape=doubleEllipse;margin=3;whiteSpace=wrap;html=1;align=center;" vertex="1" parent="1">
          <mxGeometry x="727" y="150" width="100" height="40" as="geometry" />
        </mxCell>
        <mxCell id="WY8Vy3_aa-vUZHjxCSXM-50" value="code" style="ellipse;whiteSpace=wrap;html=1;align=center;fontStyle=4;" vertex="1" parent="1">
          <mxGeometry x="380" y="190" width="100" height="40" as="geometry" />
        </mxCell>
        <mxCell id="WY8Vy3_aa-vUZHjxCSXM-52" value="" style="endArrow=none;html=1;rounded=0;exitX=0.5;exitY=1;exitDx=0;exitDy=0;entryX=0.25;entryY=0;entryDx=0;entryDy=0;" edge="1" parent="1" source="WY8Vy3_aa-vUZHjxCSXM-48" target="WY8Vy3_aa-vUZHjxCSXM-5">
          <mxGeometry relative="1" as="geometry">
            <mxPoint x="150" y="-20" as="sourcePoint" />
            <mxPoint x="310" y="-20" as="targetPoint" />
          </mxGeometry>
        </mxCell>
        <mxCell id="WY8Vy3_aa-vUZHjxCSXM-53" value="" style="endArrow=none;html=1;rounded=0;entryX=0.5;entryY=1;entryDx=0;entryDy=0;exitX=0.5;exitY=0;exitDx=0;exitDy=0;" edge="1" parent="1" source="WY8Vy3_aa-vUZHjxCSXM-5" target="WY8Vy3_aa-vUZHjxCSXM-47">
          <mxGeometry relative="1" as="geometry">
            <mxPoint x="150" y="-20" as="sourcePoint" />
            <mxPoint x="310" y="-20" as="targetPoint" />
          </mxGeometry>
        </mxCell>
        <mxCell id="WY8Vy3_aa-vUZHjxCSXM-54" value="" style="endArrow=none;html=1;rounded=0;exitX=0.5;exitY=0;exitDx=0;exitDy=0;entryX=0;entryY=1;entryDx=0;entryDy=0;" edge="1" parent="1" source="WY8Vy3_aa-vUZHjxCSXM-5" target="WY8Vy3_aa-vUZHjxCSXM-46">
          <mxGeometry relative="1" as="geometry">
            <mxPoint x="460" y="60" as="sourcePoint" />
            <mxPoint x="620" y="60" as="targetPoint" />
          </mxGeometry>
        </mxCell>
        <mxCell id="WY8Vy3_aa-vUZHjxCSXM-55" value="" style="endArrow=none;html=1;rounded=0;exitX=1;exitY=0;exitDx=0;exitDy=0;entryX=0;entryY=0.5;entryDx=0;entryDy=0;" edge="1" parent="1" source="WY8Vy3_aa-vUZHjxCSXM-5" target="WY8Vy3_aa-vUZHjxCSXM-45">
          <mxGeometry relative="1" as="geometry">
            <mxPoint x="620" y="110" as="sourcePoint" />
            <mxPoint x="725" y="176" as="targetPoint" />
          </mxGeometry>
        </mxCell>
        <mxCell id="WY8Vy3_aa-vUZHjxCSXM-56" value="" style="endArrow=none;html=1;rounded=0;exitX=1;exitY=0.5;exitDx=0;exitDy=0;entryX=0;entryY=0.5;entryDx=0;entryDy=0;" edge="1" parent="1" source="WY8Vy3_aa-vUZHjxCSXM-5" target="WY8Vy3_aa-vUZHjxCSXM-44">
          <mxGeometry relative="1" as="geometry">
            <mxPoint x="770" y="80" as="sourcePoint" />
            <mxPoint x="875" y="146" as="targetPoint" />
          </mxGeometry>
        </mxCell>
        <mxCell id="WY8Vy3_aa-vUZHjxCSXM-57" value="" style="endArrow=none;html=1;rounded=0;exitX=1;exitY=0.75;exitDx=0;exitDy=0;entryX=0.03;entryY=0.5;entryDx=0;entryDy=0;entryPerimeter=0;" edge="1" parent="1" source="WY8Vy3_aa-vUZHjxCSXM-5" target="WY8Vy3_aa-vUZHjxCSXM-49">
          <mxGeometry relative="1" as="geometry">
            <mxPoint x="560" y="170" as="sourcePoint" />
            <mxPoint x="720" y="170" as="targetPoint" />
          </mxGeometry>
        </mxCell>
        <mxCell id="WY8Vy3_aa-vUZHjxCSXM-58" value="" style="endArrow=none;html=1;rounded=0;exitX=0.5;exitY=1;exitDx=0;exitDy=0;entryX=0.5;entryY=0;entryDx=0;entryDy=0;" edge="1" parent="1" source="WY8Vy3_aa-vUZHjxCSXM-5" target="WY8Vy3_aa-vUZHjxCSXM-50">
          <mxGeometry relative="1" as="geometry">
            <mxPoint x="550" y="140" as="sourcePoint" />
            <mxPoint x="655" y="206" as="targetPoint" />
          </mxGeometry>
        </mxCell>
        <mxCell id="WY8Vy3_aa-vUZHjxCSXM-60" value="No." style="ellipse;whiteSpace=wrap;html=1;align=center;" vertex="1" parent="1">
          <mxGeometry x="500" y="-200" width="100" height="40" as="geometry" />
        </mxCell>
        <mxCell id="WY8Vy3_aa-vUZHjxCSXM-61" value="Street" style="ellipse;whiteSpace=wrap;html=1;align=center;" vertex="1" parent="1">
          <mxGeometry x="610" y="-250" width="100" height="40" as="geometry" />
        </mxCell>
        <mxCell id="WY8Vy3_aa-vUZHjxCSXM-63" value="District" style="ellipse;whiteSpace=wrap;html=1;align=center;" vertex="1" parent="1">
          <mxGeometry x="750" y="-220" width="100" height="40" as="geometry" />
        </mxCell>
        <mxCell id="WY8Vy3_aa-vUZHjxCSXM-64" value="City" style="ellipse;whiteSpace=wrap;html=1;align=center;" vertex="1" parent="1">
          <mxGeometry x="760" y="-110" width="100" height="40" as="geometry" />
        </mxCell>
        <mxCell id="WY8Vy3_aa-vUZHjxCSXM-65" value="" style="endArrow=none;html=1;rounded=0;exitX=0.59;exitY=0.994;exitDx=0;exitDy=0;exitPerimeter=0;entryX=0.5;entryY=0;entryDx=0;entryDy=0;" edge="1" parent="1" source="WY8Vy3_aa-vUZHjxCSXM-60" target="WY8Vy3_aa-vUZHjxCSXM-46">
          <mxGeometry relative="1" as="geometry">
            <mxPoint x="260" y="-60" as="sourcePoint" />
            <mxPoint x="420" y="-60" as="targetPoint" />
          </mxGeometry>
        </mxCell>
        <mxCell id="WY8Vy3_aa-vUZHjxCSXM-67" value="" style="endArrow=none;html=1;rounded=0;exitX=0.5;exitY=1;exitDx=0;exitDy=0;entryX=0.62;entryY=0.094;entryDx=0;entryDy=0;entryPerimeter=0;" edge="1" parent="1" source="WY8Vy3_aa-vUZHjxCSXM-61" target="WY8Vy3_aa-vUZHjxCSXM-46">
          <mxGeometry relative="1" as="geometry">
            <mxPoint x="650" y="-120" as="sourcePoint" />
            <mxPoint x="701" y="-40" as="targetPoint" />
          </mxGeometry>
        </mxCell>
        <mxCell id="WY8Vy3_aa-vUZHjxCSXM-68" value="" style="endArrow=none;html=1;rounded=0;exitX=0;exitY=0.5;exitDx=0;exitDy=0;entryX=1;entryY=0;entryDx=0;entryDy=0;" edge="1" parent="1" source="WY8Vy3_aa-vUZHjxCSXM-63" target="WY8Vy3_aa-vUZHjxCSXM-46">
          <mxGeometry relative="1" as="geometry">
            <mxPoint x="718" y="-90" as="sourcePoint" />
            <mxPoint x="680" y="44" as="targetPoint" />
          </mxGeometry>
        </mxCell>
        <mxCell id="WY8Vy3_aa-vUZHjxCSXM-69" value="" style="endArrow=none;html=1;rounded=0;exitX=0;exitY=0.5;exitDx=0;exitDy=0;entryX=1;entryY=0.5;entryDx=0;entryDy=0;" edge="1" parent="1" source="WY8Vy3_aa-vUZHjxCSXM-64" target="WY8Vy3_aa-vUZHjxCSXM-46">
          <mxGeometry relative="1" as="geometry">
            <mxPoint x="888" y="20" as="sourcePoint" />
            <mxPoint x="850" y="154" as="targetPoint" />
          </mxGeometry>
        </mxCell>
        <mxCell id="WY8Vy3_aa-vUZHjxCSXM-70" value="server" style="shape=rhombus;perimeter=rhombusPerimeter;whiteSpace=wrap;html=1;align=center;" vertex="1" parent="1">
          <mxGeometry x="480" y="300" width="120" height="60" as="geometry" />
        </mxCell>
        <mxCell id="WY8Vy3_aa-vUZHjxCSXM-71" value="" style="endArrow=none;html=1;rounded=0;exitX=0.75;exitY=1;exitDx=0;exitDy=0;entryX=0.5;entryY=0;entryDx=0;entryDy=0;" edge="1" parent="1" source="WY8Vy3_aa-vUZHjxCSXM-5" target="WY8Vy3_aa-vUZHjxCSXM-70">
          <mxGeometry relative="1" as="geometry">
            <mxPoint x="240" y="380" as="sourcePoint" />
            <mxPoint x="400" y="380" as="targetPoint" />
          </mxGeometry>
        </mxCell>
        <mxCell id="WY8Vy3_aa-vUZHjxCSXM-72" value="1" style="resizable=0;html=1;whiteSpace=wrap;align=right;verticalAlign=bottom;" connectable="0" vertex="1" parent="WY8Vy3_aa-vUZHjxCSXM-71">
          <mxGeometry x="1" relative="1" as="geometry" />
        </mxCell>
        <mxCell id="WY8Vy3_aa-vUZHjxCSXM-73" value="" style="endArrow=none;html=1;rounded=0;entryX=0.5;entryY=1;entryDx=0;entryDy=0;exitX=0.5;exitY=0;exitDx=0;exitDy=0;" edge="1" parent="1" source="WY8Vy3_aa-vUZHjxCSXM-4" target="WY8Vy3_aa-vUZHjxCSXM-70">
          <mxGeometry relative="1" as="geometry">
            <mxPoint x="240" y="380" as="sourcePoint" />
            <mxPoint x="400" y="380" as="targetPoint" />
          </mxGeometry>
        </mxCell>
        <mxCell id="WY8Vy3_aa-vUZHjxCSXM-74" value="N" style="resizable=0;html=1;whiteSpace=wrap;align=right;verticalAlign=bottom;" connectable="0" vertex="1" parent="WY8Vy3_aa-vUZHjxCSXM-73">
          <mxGeometry x="1" relative="1" as="geometry">
            <mxPoint x="-10" y="20" as="offset" />
          </mxGeometry>
        </mxCell>
        <mxCell id="WY8Vy3_aa-vUZHjxCSXM-75" value="FName" style="ellipse;whiteSpace=wrap;html=1;align=center;" vertex="1" parent="1">
          <mxGeometry x="640" y="360" width="100" height="40" as="geometry" />
        </mxCell>
        <mxCell id="WY8Vy3_aa-vUZHjxCSXM-76" value="LName" style="ellipse;whiteSpace=wrap;html=1;align=center;" vertex="1" parent="1">
          <mxGeometry x="720" y="440" width="100" height="40" as="geometry" />
        </mxCell>
        <mxCell id="WY8Vy3_aa-vUZHjxCSXM-77" value="Office&lt;div&gt;Addr.&lt;/div&gt;" style="ellipse;whiteSpace=wrap;html=1;align=center;" vertex="1" parent="1">
          <mxGeometry x="810" y="490" width="100" height="40" as="geometry" />
        </mxCell>
        <mxCell id="WY8Vy3_aa-vUZHjxCSXM-78" value="home&lt;br&gt;&lt;div&gt;Addr.&lt;/div&gt;" style="ellipse;whiteSpace=wrap;html=1;align=center;" vertex="1" parent="1">
          <mxGeometry x="790" y="560" width="100" height="40" as="geometry" />
        </mxCell>
        <mxCell id="WY8Vy3_aa-vUZHjxCSXM-79" value="phones" style="ellipse;shape=doubleEllipse;margin=3;whiteSpace=wrap;html=1;align=center;" vertex="1" parent="1">
          <mxGeometry x="770" y="630" width="100" height="40" as="geometry" />
        </mxCell>
        <mxCell id="WY8Vy3_aa-vUZHjxCSXM-80" value="code" style="ellipse;whiteSpace=wrap;html=1;align=center;fontStyle=4;" vertex="1" parent="1">
          <mxGeometry x="570" y="690" width="100" height="40" as="geometry" />
        </mxCell>
        <mxCell id="WY8Vy3_aa-vUZHjxCSXM-81" value="Email" style="ellipse;whiteSpace=wrap;html=1;align=center;" vertex="1" parent="1">
          <mxGeometry x="670" y="660" width="100" height="40" as="geometry" />
        </mxCell>
        <mxCell id="WY8Vy3_aa-vUZHjxCSXM-82" value="" style="endArrow=none;html=1;rounded=0;exitX=0.75;exitY=0;exitDx=0;exitDy=0;entryX=0;entryY=1;entryDx=0;entryDy=0;" edge="1" parent="1" source="WY8Vy3_aa-vUZHjxCSXM-4" target="WY8Vy3_aa-vUZHjxCSXM-75">
          <mxGeometry relative="1" as="geometry">
            <mxPoint x="300" y="610" as="sourcePoint" />
            <mxPoint x="460" y="610" as="targetPoint" />
          </mxGeometry>
        </mxCell>
        <mxCell id="WY8Vy3_aa-vUZHjxCSXM-83" value="" style="endArrow=none;html=1;rounded=0;exitX=1;exitY=0;exitDx=0;exitDy=0;entryX=0;entryY=0.5;entryDx=0;entryDy=0;" edge="1" parent="1" source="WY8Vy3_aa-vUZHjxCSXM-4" target="WY8Vy3_aa-vUZHjxCSXM-76">
          <mxGeometry relative="1" as="geometry">
            <mxPoint x="630" y="646" as="sourcePoint" />
            <mxPoint x="710" y="520" as="targetPoint" />
          </mxGeometry>
        </mxCell>
        <mxCell id="WY8Vy3_aa-vUZHjxCSXM-84" value="" style="endArrow=none;html=1;rounded=0;exitX=1;exitY=0.25;exitDx=0;exitDy=0;entryX=0;entryY=0.5;entryDx=0;entryDy=0;" edge="1" parent="1" source="WY8Vy3_aa-vUZHjxCSXM-4" target="WY8Vy3_aa-vUZHjxCSXM-77">
          <mxGeometry relative="1" as="geometry">
            <mxPoint x="700" y="636" as="sourcePoint" />
            <mxPoint x="780" y="510" as="targetPoint" />
          </mxGeometry>
        </mxCell>
        <mxCell id="WY8Vy3_aa-vUZHjxCSXM-85" value="" style="endArrow=none;html=1;rounded=0;exitX=1;exitY=0.5;exitDx=0;exitDy=0;entryX=0;entryY=0.5;entryDx=0;entryDy=0;" edge="1" parent="1" source="WY8Vy3_aa-vUZHjxCSXM-4" target="WY8Vy3_aa-vUZHjxCSXM-78">
          <mxGeometry relative="1" as="geometry">
            <mxPoint x="730" y="706" as="sourcePoint" />
            <mxPoint x="810" y="580" as="targetPoint" />
          </mxGeometry>
        </mxCell>
        <mxCell id="WY8Vy3_aa-vUZHjxCSXM-86" value="" style="endArrow=none;html=1;rounded=0;exitX=1;exitY=0.75;exitDx=0;exitDy=0;entryX=0;entryY=0;entryDx=0;entryDy=0;" edge="1" parent="1" source="WY8Vy3_aa-vUZHjxCSXM-4" target="WY8Vy3_aa-vUZHjxCSXM-79">
          <mxGeometry relative="1" as="geometry">
            <mxPoint x="770" y="716" as="sourcePoint" />
            <mxPoint x="850" y="590" as="targetPoint" />
          </mxGeometry>
        </mxCell>
        <mxCell id="WY8Vy3_aa-vUZHjxCSXM-87" value="" style="endArrow=none;html=1;rounded=0;exitX=0.75;exitY=1;exitDx=0;exitDy=0;entryX=0;entryY=0;entryDx=0;entryDy=0;" edge="1" parent="1" source="WY8Vy3_aa-vUZHjxCSXM-4" target="WY8Vy3_aa-vUZHjxCSXM-81">
          <mxGeometry relative="1" as="geometry">
            <mxPoint x="780" y="726" as="sourcePoint" />
            <mxPoint x="860" y="600" as="targetPoint" />
          </mxGeometry>
        </mxCell>
        <mxCell id="WY8Vy3_aa-vUZHjxCSXM-88" value="" style="endArrow=none;html=1;rounded=0;exitX=0.5;exitY=0;exitDx=0;exitDy=0;entryX=0.5;entryY=1;entryDx=0;entryDy=0;" edge="1" parent="1" source="WY8Vy3_aa-vUZHjxCSXM-80" target="WY8Vy3_aa-vUZHjxCSXM-4">
          <mxGeometry relative="1" as="geometry">
            <mxPoint x="680" y="776" as="sourcePoint" />
            <mxPoint x="760" y="650" as="targetPoint" />
          </mxGeometry>
        </mxCell>
        <mxCell id="WY8Vy3_aa-vUZHjxCSXM-89" value="Relationship" style="shape=rhombus;perimeter=rhombusPerimeter;whiteSpace=wrap;html=1;align=center;" vertex="1" parent="1">
          <mxGeometry x="220" y="520" width="120" height="60" as="geometry" />
        </mxCell>
        <mxCell id="WY8Vy3_aa-vUZHjxCSXM-90" value="" style="ellipse;whiteSpace=wrap;html=1;" vertex="1" parent="1">
          <mxGeometry x="-60" y="660" width="40" height="40" as="geometry" />
        </mxCell>
        <mxCell id="WY8Vy3_aa-vUZHjxCSXM-91" value="d" style="text;html=1;align=center;verticalAlign=middle;whiteSpace=wrap;rounded=0;" vertex="1" parent="1">
          <mxGeometry x="-70" y="665" width="60" height="30" as="geometry" />
        </mxCell>
        <mxCell id="WY8Vy3_aa-vUZHjxCSXM-93" value="" style="shape=link;html=1;rounded=0;entryX=0;entryY=0.5;entryDx=0;entryDy=0;exitX=1;exitY=0.5;exitDx=0;exitDy=0;" edge="1" parent="1" source="WY8Vy3_aa-vUZHjxCSXM-3" target="WY8Vy3_aa-vUZHjxCSXM-89">
          <mxGeometry relative="1" as="geometry">
            <mxPoint x="410" y="390" as="sourcePoint" />
            <mxPoint x="290" y="460" as="targetPoint" />
          </mxGeometry>
        </mxCell>
        <mxCell id="WY8Vy3_aa-vUZHjxCSXM-94" value="n" style="resizable=0;html=1;whiteSpace=wrap;align=right;verticalAlign=bottom;" connectable="0" vertex="1" parent="WY8Vy3_aa-vUZHjxCSXM-93">
          <mxGeometry x="1" relative="1" as="geometry">
            <mxPoint y="-10" as="offset" />
          </mxGeometry>
        </mxCell>
        <mxCell id="WY8Vy3_aa-vUZHjxCSXM-97" value="" style="endArrow=none;html=1;rounded=0;exitX=0;exitY=0.5;exitDx=0;exitDy=0;entryX=1;entryY=0.5;entryDx=0;entryDy=0;" edge="1" parent="1" source="WY8Vy3_aa-vUZHjxCSXM-4" target="WY8Vy3_aa-vUZHjxCSXM-89">
          <mxGeometry relative="1" as="geometry">
            <mxPoint x="240" y="480" as="sourcePoint" />
            <mxPoint x="400" y="480" as="targetPoint" />
          </mxGeometry>
        </mxCell>
        <mxCell id="WY8Vy3_aa-vUZHjxCSXM-98" value="1" style="resizable=0;html=1;whiteSpace=wrap;align=right;verticalAlign=bottom;" connectable="0" vertex="1" parent="WY8Vy3_aa-vUZHjxCSXM-97">
          <mxGeometry x="1" relative="1" as="geometry" />
        </mxCell>
        <mxCell id="WY8Vy3_aa-vUZHjxCSXM-99" value="Number" style="ellipse;whiteSpace=wrap;html=1;align=center;fontStyle=4;" vertex="1" parent="1">
          <mxGeometry x="-240" y="530" width="100" height="40" as="geometry" />
        </mxCell>
        <mxCell id="WY8Vy3_aa-vUZHjxCSXM-100" value="" style="shape=link;html=1;rounded=0;entryX=0.5;entryY=1;entryDx=0;entryDy=0;exitX=0.5;exitY=0;exitDx=0;exitDy=0;" edge="1" parent="1" source="WY8Vy3_aa-vUZHjxCSXM-90" target="WY8Vy3_aa-vUZHjxCSXM-3">
          <mxGeometry relative="1" as="geometry">
            <mxPoint x="240" y="860" as="sourcePoint" />
            <mxPoint x="400" y="860" as="targetPoint" />
          </mxGeometry>
        </mxCell>
        <mxCell id="WY8Vy3_aa-vUZHjxCSXM-101" value="" style="resizable=0;html=1;whiteSpace=wrap;align=right;verticalAlign=bottom;" connectable="0" vertex="1" parent="WY8Vy3_aa-vUZHjxCSXM-100">
          <mxGeometry x="1" relative="1" as="geometry" />
        </mxCell>
        <mxCell id="WY8Vy3_aa-vUZHjxCSXM-102" value="Saving Account" style="whiteSpace=wrap;html=1;align=center;" vertex="1" parent="1">
          <mxGeometry x="-210" y="750" width="100" height="40" as="geometry" />
        </mxCell>
        <mxCell id="WY8Vy3_aa-vUZHjxCSXM-103" value="Checking Account" style="whiteSpace=wrap;html=1;align=center;" vertex="1" parent="1">
          <mxGeometry x="-40" y="790" width="100" height="40" as="geometry" />
        </mxCell>
        <mxCell id="WY8Vy3_aa-vUZHjxCSXM-104" value="Loan" style="whiteSpace=wrap;html=1;align=center;" vertex="1" parent="1">
          <mxGeometry x="100" y="750" width="100" height="40" as="geometry" />
        </mxCell>
        <mxCell id="WY8Vy3_aa-vUZHjxCSXM-105" value="" style="endArrow=none;html=1;rounded=0;exitX=0.5;exitY=0;exitDx=0;exitDy=0;entryX=0.25;entryY=1;entryDx=0;entryDy=0;" edge="1" parent="1" source="WY8Vy3_aa-vUZHjxCSXM-102" target="WY8Vy3_aa-vUZHjxCSXM-91">
          <mxGeometry relative="1" as="geometry">
            <mxPoint x="240" y="860" as="sourcePoint" />
            <mxPoint x="400" y="860" as="targetPoint" />
          </mxGeometry>
        </mxCell>
        <mxCell id="WY8Vy3_aa-vUZHjxCSXM-107" value="" style="endArrow=none;html=1;rounded=0;exitX=0.5;exitY=0;exitDx=0;exitDy=0;entryX=0.5;entryY=1;entryDx=0;entryDy=0;" edge="1" parent="1" source="WY8Vy3_aa-vUZHjxCSXM-103" target="WY8Vy3_aa-vUZHjxCSXM-91">
          <mxGeometry relative="1" as="geometry">
            <mxPoint x="10" y="785" as="sourcePoint" />
            <mxPoint x="115" y="730" as="targetPoint" />
          </mxGeometry>
        </mxCell>
        <mxCell id="WY8Vy3_aa-vUZHjxCSXM-108" value="" style="endArrow=none;html=1;rounded=0;exitX=0.5;exitY=0;exitDx=0;exitDy=0;entryX=0.75;entryY=1;entryDx=0;entryDy=0;" edge="1" parent="1" source="WY8Vy3_aa-vUZHjxCSXM-104" target="WY8Vy3_aa-vUZHjxCSXM-91">
          <mxGeometry relative="1" as="geometry">
            <mxPoint x="140" y="755" as="sourcePoint" />
            <mxPoint x="245" y="700" as="targetPoint" />
          </mxGeometry>
        </mxCell>
        <mxCell id="WY8Vy3_aa-vUZHjxCSXM-111" value="" style="endArrow=none;html=1;rounded=0;" edge="1" parent="1">
          <mxGeometry width="50" height="50" relative="1" as="geometry">
            <mxPoint x="-70" y="720" as="sourcePoint" />
            <mxPoint x="-90" y="690" as="targetPoint" />
            <Array as="points">
              <mxPoint x="-90" y="730" />
              <mxPoint x="-110" y="720" />
            </Array>
          </mxGeometry>
        </mxCell>
        <mxCell id="WY8Vy3_aa-vUZHjxCSXM-114" value="" style="endArrow=none;html=1;rounded=0;" edge="1" parent="1">
          <mxGeometry width="50" height="50" relative="1" as="geometry">
            <mxPoint x="40" y="730" as="sourcePoint" />
            <mxPoint x="70" y="690" as="targetPoint" />
            <Array as="points">
              <mxPoint x="70" y="740" />
              <mxPoint x="90" y="730" />
            </Array>
          </mxGeometry>
        </mxCell>
        <mxCell id="WY8Vy3_aa-vUZHjxCSXM-115" value="" style="endArrow=none;html=1;rounded=0;" edge="1" parent="1">
          <mxGeometry width="50" height="50" relative="1" as="geometry">
            <mxPoint x="-40" y="720" as="sourcePoint" />
            <mxPoint y="700" as="targetPoint" />
            <Array as="points">
              <mxPoint x="-30" y="740" />
              <mxPoint x="-10" y="740" />
              <mxPoint x="10" y="730" />
            </Array>
          </mxGeometry>
        </mxCell>
        <mxCell id="WY8Vy3_aa-vUZHjxCSXM-116" value="Opened Date" style="ellipse;whiteSpace=wrap;html=1;align=center;" vertex="1" parent="1">
          <mxGeometry x="-230" y="850" width="100" height="40" as="geometry" />
        </mxCell>
        <mxCell id="WY8Vy3_aa-vUZHjxCSXM-117" value="Interest rate" style="ellipse;whiteSpace=wrap;html=1;align=center;" vertex="1" parent="1">
          <mxGeometry x="-340" y="810" width="100" height="40" as="geometry" />
        </mxCell>
        <mxCell id="WY8Vy3_aa-vUZHjxCSXM-118" value="Balance" style="ellipse;whiteSpace=wrap;html=1;align=center;" vertex="1" parent="1">
          <mxGeometry x="-340" y="695" width="100" height="40" as="geometry" />
        </mxCell>
        <mxCell id="WY8Vy3_aa-vUZHjxCSXM-120" value="Balance" style="ellipse;whiteSpace=wrap;html=1;align=center;" vertex="1" parent="1">
          <mxGeometry x="-110" y="880" width="100" height="40" as="geometry" />
        </mxCell>
        <mxCell id="WY8Vy3_aa-vUZHjxCSXM-121" value="Opened Date" style="ellipse;whiteSpace=wrap;html=1;align=center;" vertex="1" parent="1">
          <mxGeometry x="10" y="870" width="100" height="40" as="geometry" />
        </mxCell>
        <mxCell id="WY8Vy3_aa-vUZHjxCSXM-123" value="BalanceDue" style="ellipse;whiteSpace=wrap;html=1;align=center;" vertex="1" parent="1">
          <mxGeometry x="250" y="735" width="100" height="40" as="geometry" />
        </mxCell>
        <mxCell id="WY8Vy3_aa-vUZHjxCSXM-124" value="Taken Date" style="ellipse;whiteSpace=wrap;html=1;align=center;" vertex="1" parent="1">
          <mxGeometry x="180" y="670" width="100" height="40" as="geometry" />
        </mxCell>
        <mxCell id="WY8Vy3_aa-vUZHjxCSXM-125" value="Interest rate" style="ellipse;whiteSpace=wrap;html=1;align=center;" vertex="1" parent="1">
          <mxGeometry x="210" y="850" width="100" height="40" as="geometry" />
        </mxCell>
        <mxCell id="WY8Vy3_aa-vUZHjxCSXM-126" value="" style="endArrow=none;html=1;rounded=0;exitX=1;exitY=0.5;exitDx=0;exitDy=0;entryX=0;entryY=0.5;entryDx=0;entryDy=0;" edge="1" parent="1" source="WY8Vy3_aa-vUZHjxCSXM-118" target="WY8Vy3_aa-vUZHjxCSXM-102">
          <mxGeometry relative="1" as="geometry">
            <mxPoint x="-230" y="940" as="sourcePoint" />
            <mxPoint x="-70" y="940" as="targetPoint" />
          </mxGeometry>
        </mxCell>
        <mxCell id="WY8Vy3_aa-vUZHjxCSXM-128" value="" style="endArrow=none;html=1;rounded=0;exitX=0;exitY=1;exitDx=0;exitDy=0;entryX=1;entryY=0.5;entryDx=0;entryDy=0;" edge="1" parent="1" source="WY8Vy3_aa-vUZHjxCSXM-102" target="WY8Vy3_aa-vUZHjxCSXM-117">
          <mxGeometry relative="1" as="geometry">
            <mxPoint x="-160" y="850" as="sourcePoint" />
            <mxPoint x="-130" y="905" as="targetPoint" />
          </mxGeometry>
        </mxCell>
        <mxCell id="WY8Vy3_aa-vUZHjxCSXM-129" value="" style="endArrow=none;html=1;rounded=0;exitX=0.5;exitY=1;exitDx=0;exitDy=0;entryX=0.5;entryY=0;entryDx=0;entryDy=0;" edge="1" parent="1" source="WY8Vy3_aa-vUZHjxCSXM-102" target="WY8Vy3_aa-vUZHjxCSXM-116">
          <mxGeometry relative="1" as="geometry">
            <mxPoint x="-140" y="810" as="sourcePoint" />
            <mxPoint x="-110" y="865" as="targetPoint" />
          </mxGeometry>
        </mxCell>
        <mxCell id="WY8Vy3_aa-vUZHjxCSXM-130" value="" style="endArrow=none;html=1;rounded=0;exitX=0.42;exitY=0.994;exitDx=0;exitDy=0;entryX=0.5;entryY=0;entryDx=0;entryDy=0;exitPerimeter=0;" edge="1" parent="1" source="WY8Vy3_aa-vUZHjxCSXM-103" target="WY8Vy3_aa-vUZHjxCSXM-120">
          <mxGeometry relative="1" as="geometry">
            <mxPoint x="-10" y="830" as="sourcePoint" />
            <mxPoint x="20" y="885" as="targetPoint" />
          </mxGeometry>
        </mxCell>
        <mxCell id="WY8Vy3_aa-vUZHjxCSXM-131" value="" style="endArrow=none;html=1;rounded=0;exitX=0.5;exitY=1;exitDx=0;exitDy=0;entryX=0.5;entryY=0;entryDx=0;entryDy=0;" edge="1" parent="1" source="WY8Vy3_aa-vUZHjxCSXM-103" target="WY8Vy3_aa-vUZHjxCSXM-121">
          <mxGeometry relative="1" as="geometry">
            <mxPoint x="100" y="860" as="sourcePoint" />
            <mxPoint x="130" y="915" as="targetPoint" />
          </mxGeometry>
        </mxCell>
        <mxCell id="WY8Vy3_aa-vUZHjxCSXM-132" value="" style="endArrow=none;html=1;rounded=0;exitX=0.75;exitY=1;exitDx=0;exitDy=0;entryX=0;entryY=0;entryDx=0;entryDy=0;" edge="1" parent="1" source="WY8Vy3_aa-vUZHjxCSXM-104" target="WY8Vy3_aa-vUZHjxCSXM-125">
          <mxGeometry relative="1" as="geometry">
            <mxPoint x="100" y="830" as="sourcePoint" />
            <mxPoint x="130" y="885" as="targetPoint" />
          </mxGeometry>
        </mxCell>
        <mxCell id="WY8Vy3_aa-vUZHjxCSXM-133" value="" style="endArrow=none;html=1;rounded=0;exitX=1;exitY=0.5;exitDx=0;exitDy=0;entryX=0;entryY=0.5;entryDx=0;entryDy=0;" edge="1" parent="1" source="WY8Vy3_aa-vUZHjxCSXM-104" target="WY8Vy3_aa-vUZHjxCSXM-123">
          <mxGeometry relative="1" as="geometry">
            <mxPoint x="220" y="780" as="sourcePoint" />
            <mxPoint x="250" y="835" as="targetPoint" />
          </mxGeometry>
        </mxCell>
        <mxCell id="WY8Vy3_aa-vUZHjxCSXM-134" value="" style="endArrow=none;html=1;rounded=0;exitX=0.5;exitY=1;exitDx=0;exitDy=0;entryX=0.75;entryY=0;entryDx=0;entryDy=0;" edge="1" parent="1" source="WY8Vy3_aa-vUZHjxCSXM-124" target="WY8Vy3_aa-vUZHjxCSXM-104">
          <mxGeometry relative="1" as="geometry">
            <mxPoint x="230" y="740" as="sourcePoint" />
            <mxPoint x="260" y="795" as="targetPoint" />
          </mxGeometry>
        </mxCell>
        <mxCell id="WY8Vy3_aa-vUZHjxCSXM-135" value="" style="endArrow=none;html=1;rounded=0;exitX=0;exitY=0.5;exitDx=0;exitDy=0;entryX=1;entryY=0.5;entryDx=0;entryDy=0;" edge="1" parent="1" source="WY8Vy3_aa-vUZHjxCSXM-3" target="WY8Vy3_aa-vUZHjxCSXM-99">
          <mxGeometry relative="1" as="geometry">
            <mxPoint x="-90" y="550" as="sourcePoint" />
            <mxPoint x="-60" y="605" as="targetPoint" />
          </mxGeometry>
        </mxCell>
      </root>
    </mxGraphModel>
  </diagram>
</mxfile>
